<svg width="75" height="83" viewBox="0 0 283 83" fill="none" xmlns="http://www.w3.org/2000/svg">
<g clip-path="url(#clip0_2078_14894)">
<path d="M117.93 68.0699L142.41 82.2099V53.9399L117.93 68.0699Z" fill="#9B7AF8"/>
<path d="M103.722 53.8698L89.6295 67.9624L103.835 82.1682L117.928 68.0755L103.722 53.8698Z" fill="#FF952C"/>
<path d="M51.46 80.7699H64.13V68.0199C64.13 64.7599 62.89 61.4899 60.42 58.9999C55.47 54.0199 47.45 54.0199 42.5 58.9999C37.55 63.9799 37.55 72.0499 42.5 77.0299C44.97 79.5199 48.22 80.7599 51.46 80.7599V80.7699Z" fill="#66BEFE"/>
<path d="M76.88 80.77C83.9216 80.77 89.63 75.0616 89.63 68.02C89.63 60.9784 83.9216 55.27 76.88 55.27C69.8384 55.27 64.13 60.9784 64.13 68.02C64.13 75.0616 69.8384 80.77 76.88 80.77Z" fill="#F8F37A"/>
<path d="M41.99 59.6599V15.9699H48.08V21.3599C50.52 17.8999 55.26 15.1399 60.14 15.1399C69.89 15.1399 77.65 23.0299 77.65 33.2299C77.65 43.4299 69.89 51.3199 60.14 51.3199C55.52 51.3199 50.9 48.8199 48.21 45.2899C48.28 48.2999 48.47 51.5199 48.47 55.3599V59.6599H41.99ZM70.99 33.2299C70.99 26.6199 66.11 21.0399 59.7 21.0399C53.29 21.0399 48.41 26.6899 48.41 33.2299C48.41 39.7699 53.29 45.4199 59.7 45.4199C66.11 45.4199 70.99 39.8399 70.99 33.2299Z" fill="#0D0D0D"/>
<path d="M103.2 4.49C103.2 1.93 105.51 0 107.88 0C110.25 0 112.56 1.92 112.56 4.49C112.56 7.19 110.19 9.04 107.88 9.04C105.57 9.04 103.2 7.18 103.2 4.49ZM104.61 50.49V15.97H111.09V50.48H104.61V50.49Z" fill="#0D0D0D"/>
<path d="M117.06 48.63V41.83C120.97 44.14 126.04 45.62 129.7 45.62C133.87 45.62 135.92 44.02 135.92 41.32C135.92 38.62 133.93 37.28 128.93 35.93C120.46 33.75 117 30.22 117 24.83C117 18.8 121.88 15.21 129.64 15.21C134.07 15.21 138.04 16.24 140.74 17.2V24C137.02 22.07 133.11 20.99 129.64 20.99C125.73 20.99 123.67 22.4 123.67 24.83C123.67 27.26 125.34 28.62 130.6 30.03C138.81 32.15 142.53 35.55 142.53 41.32C142.53 47.09 137.65 51.39 129.76 51.39C124.31 51.39 119.69 49.79 117.06 48.63Z" fill="#0D0D0D"/>
<path d="M145.69 33.2299C145.69 23.0299 153.45 15.1399 163.2 15.1399C168.01 15.1399 172.76 17.8999 175.2 21.3599V15.9699H181.36V50.4799H175.2V45.0899C172.76 48.5599 168.08 51.3199 163.2 51.3199C153.45 51.3199 145.69 43.4299 145.69 33.2299ZM174.94 33.2299C174.94 26.6899 170.06 21.0399 163.65 21.0399C157.24 21.0399 152.36 26.6199 152.36 33.2299C152.36 39.8399 157.17 45.4199 163.65 45.4199C170.13 45.4199 174.94 39.7699 174.94 33.2299Z" fill="#0D0D0D"/>
<path d="M187.21 50.4899V15.9699H193.43V21.1599C194.97 18.6599 198.43 15.1299 204.53 15.1299C210.63 15.1299 217.23 19.3699 217.23 29.3099V50.4799H210.75V29.3099C210.75 23.9899 207.29 21.1599 203.37 21.1599C199.45 21.1599 193.68 24.9499 193.68 33.4799V50.4799H187.2L187.21 50.4899Z" fill="#0D0D0D"/>
<path d="M222.25 39.1301V21.6201L216.62 15.9801H222.25V7.57007H228.73V15.9701H239.19V21.6101H228.73V39.0001C228.73 42.8501 230.4 44.9701 234.38 44.9701C236.24 44.9701 237.91 44.6501 239.19 44.3301V50.3001C237.71 50.7501 236.17 51.0701 233.93 51.0701C227.13 51.0701 222.25 47.0901 222.25 39.1301Z" fill="#0D0D0D"/>
<path d="M82.65 39.1301V21.6201L77.02 15.9801H82.65V7.57007H89.13V15.9701H99.59V21.6101H89.13V39.0001C89.13 42.8501 90.8 44.9701 94.78 44.9701C96.64 44.9701 98.31 44.6501 99.59 44.3301V50.3001C98.11 50.7501 96.57 51.0701 94.33 51.0701C87.53 51.0701 82.65 47.0901 82.65 39.1301Z" fill="#0D0D0D"/>
<path d="M242.8 4.49C242.8 1.93 245.11 0 247.48 0C249.85 0 252.16 1.92 252.16 4.49C252.16 7.19 249.79 9.04 247.48 9.04C245.17 9.04 242.8 7.18 242.8 4.49ZM244.21 50.49V15.97H250.69V50.48H244.21V50.49Z" fill="#0D0D0D"/>
<path d="M256.66 48.63V41.83C260.57 44.14 265.64 45.62 269.3 45.62C273.47 45.62 275.52 44.02 275.52 41.32C275.52 38.62 273.53 37.28 268.53 35.93C260.06 33.75 256.6 30.22 256.6 24.83C256.6 18.8 261.48 15.21 269.24 15.21C273.67 15.21 277.64 16.24 280.34 17.2V24C276.62 22.07 272.71 20.99 269.24 20.99C265.33 20.99 263.27 22.4 263.27 24.83C263.27 27.26 264.94 28.62 270.2 30.03C278.41 32.15 282.13 35.55 282.13 41.32C282.13 47.09 277.25 51.39 269.36 51.39C263.91 51.39 259.29 49.79 256.66 48.63Z" fill="#0D0D0D"/>
<path d="M0.869995 33.2299C0.869995 23.0299 9.20999 15.1399 19.02 15.1399C28.83 15.1399 37.17 23.0299 37.17 33.2299C37.17 43.4299 28.83 51.3199 19.02 51.3199C9.20999 51.3199 0.869995 43.4299 0.869995 33.2299ZM30.51 33.2299C30.51 26.4299 25.44 21.0399 19.03 21.0399C12.62 21.0399 7.54999 26.4299 7.54999 33.2299C7.54999 40.0299 12.62 45.4199 19.03 45.4199C25.44 45.4199 30.51 40.0299 30.51 33.2299Z" fill="#0D0D0D"/>
</g>
<defs>
<clipPath id="clip0_2078_14894">
<rect width="281.26" height="82.21" fill="white" transform="translate(0.869995)"/>
</clipPath>
</defs>
</svg>
